<svg width="40" height="40" viewBox="0 0 40 40" fill="none" xmlns="http://www.w3.org/2000/svg">
<path d="M0 20C0 31.0457 8.95431 40 20 40C31.0457 40 40 31.0457 40 20C40 8.95431 31.0457 0 20 0C8.95431 0 0 8.95431 0 20Z" fill="#1DA1F2"/>
<path d="M30 13.875C29.25 14.25 28.5 14.375 27.625 14.5C28.5 14 29.125 13.25 29.375 12.25C28.625 12.75 27.75 13 26.75 13.25C26 12.5 24.875 12 23.75 12C21.125 12 19.125 14.5 19.75 17C16.375 16.875 13.375 15.25 11.25 12.75C10.125 14.625 10.75 17 12.5 18.25C11.875 18.25 11.25 18 10.625 17.75C10.625 19.625 12 21.375 13.875 21.875C13.25 22 12.625 22.125 12 22C12.5 23.625 14 24.875 15.875 24.875C14.375 26 12.125 26.625 10 26.375C11.875 27.5 14 28.25 16.25 28.25C23.875 28.25 28.125 21.875 27.875 16C28.75 15.5 29.5 14.75 30 13.875Z" fill="white"/>
</svg>
