<svg width="40" height="39" viewBox="0 0 40 39" fill="none" xmlns="http://www.w3.org/2000/svg">
<path fill-rule="evenodd" clip-rule="evenodd" d="M19.9388 0C8.92966 0 0 8.92966 0 19.9388C0 28.7462 5.74924 36.208 13.578 38.8991C14.5566 39.0214 14.9235 38.4098 14.9235 37.9205C14.9235 37.4312 14.9235 36.208 14.9235 34.4954C9.41896 35.7187 8.19572 31.8043 8.19572 31.8043C7.33945 29.4801 5.99388 28.8685 5.99388 28.8685C4.15902 27.6453 6.11621 27.6453 6.11621 27.6453C8.07339 27.7676 9.17431 29.7248 9.17431 29.7248C11.0092 32.7829 13.8226 31.9266 14.9235 31.4373C15.0459 30.0917 15.6575 29.2355 16.1468 28.7462C11.7431 28.2569 7.0948 26.5443 7.0948 18.8379C7.0948 16.6361 7.82875 14.9235 9.17431 13.4557C9.05199 13.0887 8.31804 11.0092 9.41896 8.31804C9.41896 8.31804 11.1315 7.82875 14.9235 10.3976C16.5138 9.90826 18.2263 9.78593 19.9388 9.78593C21.6514 9.78593 23.3639 10.0306 24.9541 10.3976C28.7462 7.82875 30.4587 8.31804 30.4587 8.31804C31.5596 11.0092 30.8257 13.0887 30.7034 13.578C31.9266 14.9235 32.7829 16.7584 32.7829 18.9602C32.7829 26.6667 28.1346 28.2569 23.7309 28.7462C24.4648 29.3578 25.0765 30.581 25.0765 32.4159C25.0765 35.107 25.0765 37.1865 25.0765 37.9205C25.0765 38.4098 25.4434 39.0214 26.422 38.8991C34.3731 36.208 40 28.7462 40 19.9388C39.8777 8.92966 30.948 0 19.9388 0Z" fill="white"/>
</svg>
